<?xml version="1.0" encoding="UTF-8" standalone="no"?>
<!-- Created with Inkscape (http://www.inkscape.org/) -->

<svg
   xmlns:dc="http://purl.org/dc/elements/1.1/"
   xmlns:cc="http://creativecommons.org/ns#"
   xmlns:rdf="http://www.w3.org/1999/02/22-rdf-syntax-ns#"
   xmlns:svg="http://www.w3.org/2000/svg"
   xmlns="http://www.w3.org/2000/svg"
   xmlns:sodipodi="http://sodipodi.sourceforge.net/DTD/sodipodi-0.dtd"
   xmlns:inkscape="http://www.inkscape.org/namespaces/inkscape"
   width="210mm"
   height="297mm"
   id="svg2"
   version="1.1"
   inkscape:version="0.48.2 r9819"
   sodipodi:docname="icon.svg">
  <defs
     id="defs4" />
  <sodipodi:namedview
     id="base"
     pagecolor="#ffffff"
     bordercolor="#666666"
     borderopacity="1.0"
     inkscape:pageopacity="0.0"
     inkscape:pageshadow="2"
     inkscape:zoom="5.6"
     inkscape:cx="517.14655"
     inkscape:cy="700.10153"
     inkscape:document-units="px"
     inkscape:current-layer="layer1"
     showgrid="false"
     inkscape:window-width="1280"
     inkscape:window-height="706"
     inkscape:window-x="-8"
     inkscape:window-y="-8"
     inkscape:window-maximized="1" />
  <metadata
     id="metadata7">
    <rdf:RDF>
      <cc:Work
         rdf:about="">
        <dc:format>image/svg+xml</dc:format>
        <dc:type
           rdf:resource="http://purl.org/dc/dcmitype/StillImage" />
        <dc:title></dc:title>
      </cc:Work>
    </rdf:RDF>
  </metadata>
  <g
     inkscape:label="レイヤー 1"
     inkscape:groupmode="layer"
     id="layer1">
    <path
       style="fill:none;stroke:#000000;stroke-width:1px;stroke-linecap:butt;stroke-linejoin:miter;stroke-opacity:1"
       d="m 498.57143,463.79075 c 0,0 -19.31161,-32.21002 -19.28571,-62.14285 0.0137,-15.87266 12.6923,-37.12266 23.22458,-57.26164 10.53228,-20.13897 11.06113,-66.30978 11.06113,-66.30978"
       id="path2994"
       inkscape:connector-curvature="0"
       sodipodi:nodetypes="cssc" />
    <path
       sodipodi:nodetypes="cssc"
       inkscape:connector-curvature="0"
       id="path2996"
       d="m 574.28569,463.79075 c 0,0 19.31161,-32.21002 19.28571,-62.14285 -0.0137,-15.87266 -12.6923,-37.12266 -23.22458,-57.26164 -10.53228,-20.13897 -11.06113,-66.30978 -11.06113,-66.30978"
       style="fill:none;stroke:#000000;stroke-width:1px;stroke-linecap:butt;stroke-linejoin:miter;stroke-opacity:1" />
    <path
       sodipodi:nodetypes="csssccssssc"
       inkscape:connector-curvature="0"
       id="path2998"
       d="m 485.75018,378.01955 c -10.36457,-3.66117 -13.18119,-2.04032 -18.76446,-13.38785 -3.02879,-6.15575 -2.40767,-25.69776 -6.74805,-32.08133 -7.38509,-10.86155 -18.2297,-9.93105 -24.00035,-6.8829 -10.58519,5.59127 -13.39377,22.72588 -13.39377,22.72588 l 4.74746,1.42857 c 0,0 1.08671,-7.89346 5.55664,-14.7442 4.32791,-6.63306 8.84062,-7.05567 12.2423,-7.02971 6.37888,0.0487 9.422,4.06005 11.55114,11.9621 3.25917,12.09601 0.48855,19.3756 3.18146,33.44145 2.37991,12.4309 5.07793,19.49228 20.25997,38.99728"
       style="fill:none;stroke:#000000;stroke-width:1px;stroke-linecap:butt;stroke-linejoin:miter;stroke-opacity:1" />
    <path
       sodipodi:nodetypes="czc"
       inkscape:connector-curvature="0"
       id="path3000"
       d="m 513.38645,277.90429 c 0,0 1.17201,-14.59858 22.94702,-14.53548 21.77501,0.0631 22.95862,14.53548 22.95862,14.53548"
       style="fill:none;stroke:#000000;stroke-width:0.98722464px;stroke-linecap:butt;stroke-linejoin:miter;stroke-opacity:1" />
    <path
       style="fill:none;stroke:#000000;stroke-width:1px;stroke-linecap:butt;stroke-linejoin:miter;stroke-opacity:1"
       d="m 498.21429,463.61218 c 76.25,0.17857 76.25,0 76.25,0"
       id="path3004"
       inkscape:connector-curvature="0" />
    <path
       style="fill:none;stroke:#000000;stroke-width:1px;stroke-linecap:butt;stroke-linejoin:miter;stroke-opacity:1"
       d="m 513.57143,277.8979 c 45.71429,-0.17858 45.71429,0 45.71429,0"
       id="path3006"
       inkscape:connector-curvature="0" />
    <path
       style="fill:none;stroke:#000000;stroke-width:0.13901857px;stroke-linecap:butt;stroke-linejoin:miter;stroke-opacity:1"
       d="m 535.62059,263.16522 c 0,0 0.0849,-3.99799 1.66154,-3.98071 1.57667,0.0173 1.66237,3.98071 1.66237,3.98071"
       id="path3008"
       inkscape:connector-curvature="0"
       sodipodi:nodetypes="czc" />
    <path
       style="fill:none;stroke:#000000;stroke-width:1px;stroke-linecap:butt;stroke-linejoin:miter;stroke-opacity:1"
       d="m 563.17274,319.67508 c 20.96067,0.50507 30.57659,7.58564 38.08993,18.80511 7.51333,11.21948 7.16467,21.32058 5.88233,31.01887 -1.3727,10.38177 -14.14213,27.02158 -14.14213,27.02158"
       id="path3010"
       inkscape:connector-curvature="0"
       sodipodi:nodetypes="czsc" />
    <path
       sodipodi:nodetypes="czsc"
       inkscape:connector-curvature="0"
       id="path3012"
       d="m 564.60131,325.56794 c 20.96067,0.50507 27.54088,9.54991 32.91135,18.09082 5.37048,8.54091 4.93615,19.10893 2.48949,28.16173 -2.76536,10.23202 -8.60642,15.95015 -8.60642,15.95015"
       style="fill:none;stroke:#000000;stroke-width:1px;stroke-linecap:butt;stroke-linejoin:miter;stroke-opacity:1" />
  </g>
</svg>
